<svg viewBox="0 0 24 24" fill="none" xmlns="http://www.w3.org/2000/svg">
  <path d="M12 0C5.373 0 0 5.373 0 12s5.373 12 12 12 12-5.373 12-12S18.627 0 12 0z" fill="#339933"/>
  <path d="M12 2C6.477 2 2 6.477 2 12s4.477 10 10 10 10-4.477 10-10S17.523 2 12 2z" fill="#339933"/>
  <path d="M12 4C7.582 4 4 7.582 4 12s3.582 8 8 8 8-3.582 8-8S16.418 4 12 4z" fill="#339933"/>
  <path d="M12 6C8.686 6 6 8.686 6 12s2.686 6 6 6 6-2.686 6-6S15.314 6 12 6z" fill="#339933"/>
  <path d="M12 8C9.791 8 8 9.791 8 12s1.791 4 4 4 4-1.791 4-4S14.209 8 12 8z" fill="#339933"/>
  <path d="M12 10C10.895 10 10 10.895 10 12s0.895 2 2 2 2-0.895 2-2S13.105 10 12 10z" fill="#339933"/>
  <path d="M12 12C11.448 12 11 12.448 11 13s0.448 1 1 1 1-0.448 1-1S12.552 12 12 12z" fill="#339933"/>
  <path d="M12 14C11.448 14 11 14.448 11 15s0.448 1 1 1 1-0.448 1-1S12.552 14 12 14z" fill="#339933"/>
  <path d="M12 16C11.448 16 11 16.448 11 17s0.448 1 1 1 1-0.448 1-1S12.552 16 12 16z" fill="#339933"/>
  <path d="M12 18C11.448 18 11 18.448 11 19s0.448 1 1 1 1-0.448 1-1S12.552 18 12 18z" fill="#339933"/>
  <path d="M12 20C11.448 20 11 20.448 11 21s0.448 1 1 1 1-0.448 1-1S12.552 20 12 20z" fill="#339933"/>
  <path d="M12 22C11.448 22 11 22.448 11 23s0.448 1 1 1 1-0.448 1-1S12.552 22 12 22z" fill="#339933"/>
  <path d="M12 1C11.448 1 11 1.448 11 2s0.448 1 1 1 1-0.448 1-1S12.552 1 12 1z" fill="#339933"/>
  <path d="M12 3C11.448 3 11 3.448 11 4s0.448 1 1 1 1-0.448 1-1S12.552 3 12 3z" fill="#339933"/>
  <path d="M12 5C11.448 5 11 5.448 11 6s0.448 1 1 1 1-0.448 1-1S12.552 5 12 5z" fill="#339933"/>
  <path d="M12 7C11.448 7 11 7.448 11 8s0.448 1 1 1 1-0.448 1-1S12.552 7 12 7z" fill="#339933"/>
  <path d="M12 9C11.448 9 11 9.448 11 10s0.448 1 1 1 1-0.448 1-1S12.552 9 12 9z" fill="#339933"/>
  <path d="M12 11C11.448 11 11 11.448 11 12s0.448 1 1 1 1-0.448 1-1S12.552 11 12 11z" fill="#339933"/>
  <path d="M12 13C11.448 13 11 13.448 11 14s0.448 1 1 1 1-0.448 1-1S12.552 13 12 13z" fill="#339933"/>
  <path d="M12 15C11.448 15 11 15.448 11 16s0.448 1 1 1 1-0.448 1-1S12.552 15 12 15z" fill="#339933"/>
  <path d="M12 17C11.448 17 11 17.448 11 18s0.448 1 1 1 1-0.448 1-1S12.552 17 12 17z" fill="#339933"/>
  <path d="M12 19C11.448 19 11 19.448 11 20s0.448 1 1 1 1-0.448 1-1S12.552 19 12 19z" fill="#339933"/>
  <path d="M12 21C11.448 21 11 21.448 11 22s0.448 1 1 1 1-0.448 1-1S12.552 21 12 21z" fill="#339933"/>
  <path d="M12 23C11.448 23 11 23.448 11 24s0.448 1 1 1 1-0.448 1-1S12.552 23 12 23z" fill="#339933"/>
</svg>
