<svg viewBox="0 0 24 24" fill="none" xmlns="http://www.w3.org/2000/svg">
  <rect width="24" height="24" rx="4" fill="#3178C6"/>
  <path d="M1.125 0C0.503 0 0 0.503 0 1.125v21.75C0 23.497 0.503 24 1.125 24h21.75c0.622 0 1.125-0.503 1.125-1.125V1.125C24 0.503 23.497 0 22.875 0H1.125zm17.363 9.75c0.612 0 1.154.037 1.612.112a6.38 6.38 0 0 1 1.275.337v2.458a3.95 3.95 0 0 0-.675-.337 6.788 6.788 0 0 0-.9-.225 9.075 9.075 0 0 0-1.125-.075c-.375 0-.675.03-.9.075-.225.045-.375.12-.45.225-.075.09-.112.21-.112.375 0 .18.03.33.09.45.06.12.15.21.27.27.12.06.27.105.45.135.18.03.39.045.63.045.18 0 .36-.015.54-.045.18-.03.36-.075.54-.135.18-.06.36-.135.54-.225.18-.09.36-.195.54-.315V17.1a6.95 6.95 0 0 1-1.8.45 9.15 9.15 0 0 1-2.25.075c-.6 0-1.14-.06-1.62-.18a4.28 4.28 0 0 1-1.26-.54 2.93 2.93 0 0 1-.81-.9 2.25 2.25 0 0 1-.27-1.2c0-.36.06-.69.18-.99.12-.3.3-.555.54-.765.24-.21.54-.375.9-.495.36-.12.78-.18 1.26-.18.18 0 .36.015.54.045.18.03.36.075.54.135.18.06.36.135.54.225.18.09.36.195.54.315v-2.37a5.07 5.07 0 0 0-.675-.3 6.45 6.45 0 0 0-.9-.225 9.15 9.15 0 0 0-1.125-.075c-.39 0-.72.03-.99.075-.27.045-.48.12-.63.225-.15.09-.27.21-.36.36-.09.15-.135.33-.135.54 0 .24.045.45.135.63.09.18.225.33.405.45.18.12.405.21.675.27.27.06.585.09.945.09.18 0 .36-.015.54-.045.18-.03.36-.075.54-.135.18-.06.36-.135.54-.225.18-.09.36-.195.54-.315V9.75h2.25z" fill="white"/>
</svg>
